<?xml version="1.0" standalone="no"?>
<!DOCTYPE svg PUBLIC "-//W3C//DTD SVG 20010904//EN"
 "http://www.w3.org/TR/2001/REC-SVG-20010904/DTD/svg10.dtd">
<svg version="1.0" xmlns="http://www.w3.org/2000/svg"
 width="482.000000pt" height="482.000000pt" viewBox="0 0 482.000000 482.000000"
 preserveAspectRatio="xMidYMid meet">
<metadata>
Created by potrace 1.14, written by Peter Selinger 2001-2017
</metadata>
<g transform="translate(0.000000,482.000000) scale(0.100000,-0.100000)"
fill="#000000" stroke="none">
<path d="M2270 4439 c-74 -44 -141 -84 -149 -88 -11 -7 0 -30 53 -107 181
-263 178 -259 165 -287 -12 -26 -15 -22 -142 163 -71 105 -133 190 -139 190
-5 0 -116 -62 -246 -139 -130 -76 -253 -147 -272 -159 -19 -11 -183 -107 -365
-213 -181 -106 -382 -223 -445 -259 l-115 -67 -3 -93 c-2 -67 1 -98 12 -114 7
-11 210 -259 449 -550 415 -506 434 -531 425 -558 -11 -32 44 -96 -543 622
l-340 414 -3 -909 c-1 -501 0 -915 2 -921 4 -10 374 -231 397 -237 5 -1 115
222 244 496 228 488 234 498 249 475 15 -24 13 -31 -68 -204 -196 -422 -368
-789 -371 -795 -4 -5 605 -363 609 -357 1 2 85 154 185 338 101 184 187 339
191 344 5 5 14 -1 20 -16 10 -22 -6 -56 -171 -358 -160 -293 -180 -335 -166
-345 65 -48 678 -395 697 -395 26 0 370 196 370 211 0 5 -141 181 -312 390
-413 502 -391 474 -383 498 3 12 10 21 14 21 8 0 254 -298 586 -707 99 -122
145 -171 157 -169 10 2 151 82 314 177 218 127 302 181 316 203 10 17 102 185
205 373 176 324 187 341 201 322 18 -26 23 -16 -179 -386 -83 -151 -149 -276
-147 -277 6 -5 557 319 557 327 1 5 -45 76 -101 158 -95 140 -100 151 -89 175
11 26 14 23 117 -127 58 -85 111 -160 117 -166 10 -10 19 -8 45 7 l32 20 0
422 c0 255 -4 418 -9 413 -5 -6 -71 -122 -145 -260 -75 -137 -140 -253 -144
-257 -5 -5 -14 2 -21 15 -11 20 1 46 125 272 75 138 149 276 165 307 l29 58
-2 571 -3 571 -383 224 c-211 123 -387 224 -392 224 -4 0 -113 -193 -242 -430
-229 -421 -233 -429 -250 -407 -16 21 -16 24 11 72 111 198 432 797 430 799
-17 15 -794 464 -799 461 -3 -2 -54 -110 -115 -240 -107 -231 -110 -236 -127
-215 -20 25 -28 3 111 299 45 96 80 179 77 186 -7 18 -112 75 -138 75 -13 -1
-84 -37 -158 -81z m410 -932 c256 -375 272 -400 261 -424 -14 -31 -9 -36 -103
102 -41 61 -163 239 -272 397 -185 270 -196 288 -184 313 6 14 15 22 18 18 4
-5 130 -187 280 -406z m-332 381 c11 -21 -23 -99 -318 -728 -182 -388 -363
-774 -402 -857 -39 -84 -74 -153 -79 -153 -5 0 -13 9 -19 20 -9 16 57 164 392
879 222 474 406 861 409 861 3 0 11 -10 17 -22z m584 -942 c-16 -28 -204 -373
-417 -766 -214 -393 -390 -717 -392 -719 -2 -3 -11 3 -20 12 -16 15 -16 19 -1
51 9 19 182 337 384 708 201 370 383 703 403 741 36 67 36 67 54 46 17 -21 16
-23 -11 -73z m532 -583 c416 -606 446 -654 433 -673 -13 -19 -15 -19 -29 -3
-14 16 -874 1271 -892 1300 -4 7 -2 22 5 34 9 18 13 19 24 8 7 -8 214 -308
459 -666z m-1651 -550 c142 -172 257 -319 257 -327 0 -7 -6 -18 -13 -24 -9 -8
-75 66 -270 303 -245 299 -256 315 -245 340 6 14 12 24 13 23 1 -2 117 -144
258 -315z"/>
</g>
</svg>
